<svg width="18" height="17" viewBox="0 0 18 17" fill="none" xmlns="http://www.w3.org/2000/svg">
<path fill-rule="evenodd" clip-rule="evenodd" d="M15.1 1.77908H14.14V0.83024C14.14 0.355822 13.78 0.0197754 13.32 0.0197754C12.86 0.0197754 12.5 0.375589 12.5 0.83024V1.77908H5.50004V0.83024C5.50004 0.355822 5.14004 0.0197754 4.68004 0.0197754C4.22004 0.0197754 3.86004 0.375589 3.86004 0.83024V1.77908H2.90004C1.32004 1.77908 0.0400391 3.04419 0.0400391 4.60582V14.1535C0.0400391 15.7151 1.32004 16.9802 2.90004 16.9802H15.1C16.68 16.9802 17.96 15.7151 17.96 14.1535V4.60582C17.96 3.04419 16.68 1.77908 15.1 1.77908ZM1.72004 8.65815H16.32V14.1535C16.32 14.8058 15.78 15.3395 15.12 15.3395H2.92004C2.24004 15.3395 1.72004 14.8058 1.72004 14.1535V8.65815ZM5.50004 4.8628C5.50004 5.31745 5.16004 5.67326 4.68004 5.67326C4.20004 5.67326 3.86004 5.31745 3.86004 4.8628V3.41978H2.90004C2.24004 3.41978 1.70004 3.93373 1.70004 4.60582V7.03722H16.3V4.60582C16.3 3.9535 15.78 3.41978 15.1 3.41978H14.14V4.8628C14.14 5.31745 13.78 5.67326 13.32 5.67326C12.86 5.67326 12.5 5.33722 12.5 4.8628V3.41978H5.50004V4.8628Z" fill="black"/>
</svg>
