<svg width="7" height="13" viewBox="0 0 7 13" fill="none" xmlns="http://www.w3.org/2000/svg">
<path d="M6.01405 0.925593L4.57492 0.923096C2.95811 0.923096 1.91326 2.08224 1.91326 3.87631V5.23794H0.466279C0.341243 5.23794 0.23999 5.34755 0.23999 5.48275V7.4556C0.23999 7.5908 0.341358 7.70029 0.466279 7.70029H1.91326V12.6784C1.91326 12.8136 2.01451 12.9231 2.13955 12.9231H4.02744C4.15248 12.9231 4.25373 12.8135 4.25373 12.6784V7.70029H5.94558C6.07062 7.70029 6.17187 7.5908 6.17187 7.4556L6.17257 5.48275C6.17257 5.41784 6.14867 5.35567 6.1063 5.30973C6.06392 5.26378 6.0062 5.23794 5.94616 5.23794H4.25373V4.08367C4.25373 3.52888 4.37599 3.24724 5.04435 3.24724L6.01382 3.24687C6.13874 3.24687 6.23999 3.13726 6.23999 3.00218V1.17028C6.23999 1.03533 6.13885 0.925842 6.01405 0.925593Z" fill="white"/>
</svg>
