<svg width="19" height="16" viewBox="0 0 19 16" fill="none" xmlns="http://www.w3.org/2000/svg">
<path fill-rule="evenodd" clip-rule="evenodd" d="M8.34104 15.5152C8.68148 15.8255 9.10203 16 9.56264 16C10.0232 16 10.4638 15.8255 10.7442 15.5345L17.3929 9.09576C19.5357 7.02061 19.5357 3.62667 17.3929 1.55152C16.3716 0.562424 14.9897 0 13.5078 0C12.0459 0 10.6641 0.54303 9.62272 1.55152L9.54261 1.62909L9.46251 1.55152C8.44117 0.562424 7.05936 0 5.57742 0C3.13422 0 1.05149 1.51273 0.250439 3.85939C-0.350348 5.62424 0.150307 7.58303 1.53212 8.92121L8.34104 15.5152ZM2.07283 4.44121C2.73369 2.52121 4.31576 1.84242 5.59744 1.84242C6.5587 1.84242 7.45988 2.19152 8.10072 2.85091L8.84169 3.56848C9.22219 3.93697 9.82298 3.93697 10.2035 3.56848L10.9645 2.85091C11.6454 2.21091 12.5465 1.84242 13.5078 1.84242C14.4691 1.84242 15.3702 2.19152 16.0511 2.85091C16.712 3.5103 17.0925 4.38303 17.0925 5.31394C17.0925 6.24485 16.732 7.11758 16.0511 7.77697L9.54261 14.08L2.87388 7.62182C2.01275 6.78788 1.69233 5.54667 2.07283 4.44121Z" fill="black"/>
</svg>

