<svg width="31" height="30" viewBox="0 0 31 30" fill="none" xmlns="http://www.w3.org/2000/svg">
<path d="M15.5 0.203857C7.05658 0.203857 0.203949 7.05649 0.203949 15.4999V23.2499C0.244738 26.9618 3.30395 29.9802 7.01579 29.9802H7.91316C8.68816 29.9802 9.34079 29.3275 9.34079 28.5525V17.7433C9.34079 16.9683 8.68816 16.3157 7.91316 16.3157H7.01579C5.54737 16.3157 4.16053 16.8052 3.01842 17.621V15.4999C3.01842 8.64728 8.60658 3.05912 15.4592 3.05912C22.3118 3.05912 27.9408 8.64728 27.9408 15.4999V17.621C26.7987 16.8052 25.4526 16.3157 23.9434 16.3157H23.0461C22.2711 16.3157 21.6184 16.9683 21.6184 17.7433V28.5525C21.6184 29.3275 22.2711 29.9802 23.0461 29.9802H23.9434C27.6961 29.9802 30.7145 26.9618 30.7553 23.2499V15.4999C30.7961 7.05649 23.9434 0.203857 15.5 0.203857Z" fill="white"/>
</svg>
