<svg width="12" height="12" viewBox="0 0 12 12" fill="none" xmlns="http://www.w3.org/2000/svg">
<path fill-rule="evenodd" clip-rule="evenodd" d="M8.75171 0H3.24829C1.45715 0 0 1.45715 0 3.24829V8.7518C0 10.5428 1.45715 12 3.24829 12H8.7518C10.5428 12 12 10.5428 12 8.7518V3.24829C12 1.45715 10.5428 0 8.75171 0ZM6 9.28116C4.19073 9.28116 2.71884 7.80927 2.71884 6C2.71884 4.19073 4.19073 2.71884 6 2.71884C7.80927 2.71884 9.28116 4.19073 9.28116 6C9.28116 7.80927 7.80927 9.28116 6 9.28116ZM8.39008 2.5231C8.39008 3.05777 8.82495 3.49265 9.35962 3.49265C9.89429 3.49265 10.3293 3.05777 10.3293 2.5231C10.3293 1.98843 9.89429 1.55347 9.35962 1.55347C8.82495 1.55347 8.39008 1.98843 8.39008 2.5231Z" fill="white"/>
<path d="M6 4C4.89725 4 4 4.89718 4 6C4 7.10275 4.89725 8 6 8C7.10282 8 8 7.10275 8 6C8 4.89718 7.10282 4 6 4Z" fill="white"/>
</svg>
