<svg width="12" height="12" viewBox="0 0 12 12" fill="none" xmlns="http://www.w3.org/2000/svg">
<path d="M1.42787 0.0102539C0.638808 0.0102539 0.00012766 0.650084 0 1.43736C0 2.2254 0.638681 2.8651 1.428 2.8651C2.21515 2.8651 2.85472 2.2254 2.85472 1.43736C2.85472 0.649956 2.21502 0.0102539 1.42787 0.0102539Z" fill="white"/>
<rect x="0.196289" y="3.948" width="2.46217" height="7.92179" fill="white"/>
<path d="M8.92656 3.75098C7.72885 3.75098 6.92575 4.40766 6.59703 5.03038H6.56409V3.94796H4.20264H4.20251V11.8696H6.66251V7.95072C6.66251 6.91757 6.85924 5.91685 8.14017 5.91685C9.40273 5.91685 9.41958 7.09847 9.41958 8.01698V11.8695H11.88V7.52447C11.88 5.39166 11.4197 3.75098 8.92656 3.75098Z" fill="white"/>
</svg>
