<svg width="14" height="11" viewBox="0 0 14 11" fill="none" xmlns="http://www.w3.org/2000/svg">
<path d="M0.292249 0.851922C2.21369 2.47918 5.58523 5.34201 6.57617 6.23465C6.7092 6.35512 6.85188 6.41638 7 6.41638C7.14782 6.41638 7.29025 6.3557 7.42298 6.2358C8.41476 5.34229 11.7863 2.47918 13.7078 0.851922C13.8274 0.750805 13.8456 0.57307 13.7488 0.449449C13.5249 0.163789 13.1911 0 12.8333 0H1.16667C0.808937 0 0.475097 0.163789 0.251233 0.449477C0.154382 0.57307 0.17262 0.750805 0.292249 0.851922Z" fill="white"/>
<path d="M13.8308 1.73373C13.7274 1.68561 13.6058 1.7024 13.5198 1.7759C11.3889 3.58228 8.66939 5.8977 7.81375 6.66871C7.33351 7.10222 6.66701 7.10222 6.18565 6.66813C5.27362 5.8464 2.21966 3.25016 0.480211 1.77587C0.393613 1.70237 0.271715 1.68616 0.169176 1.73371C0.0660898 1.78159 0 1.8847 0 1.99834V9.3333C0 9.97675 0.523223 10.5 1.16668 10.5H12.8334C13.4768 10.5 14 9.97675 14 9.3333V1.99834C14 1.8847 13.9339 1.78131 13.8308 1.73373Z" fill="white"/>
</svg>

