<svg width="11" height="11" viewBox="0 0 11 11" fill="none" xmlns="http://www.w3.org/2000/svg">
<path d="M10.6931 8.06724L9.1591 6.53323C8.61124 5.98537 7.67988 6.20454 7.46074 6.91673C7.29638 7.40983 6.74852 7.68376 6.25544 7.57416C5.15972 7.30023 3.6805 5.8758 3.40657 4.72529C3.24221 4.2322 3.57093 3.68434 4.064 3.52C4.77622 3.30086 4.99537 2.36949 4.44751 1.82163L2.9135 0.287626C2.47521 -0.0958755 1.81778 -0.0958755 1.43428 0.287626L0.393343 1.32856C-0.647591 2.42428 0.502915 5.32794 3.07786 7.90288C5.6528 10.4778 8.55646 11.6831 9.65218 10.5874L10.6931 9.54646C11.0766 9.10817 11.0766 8.45074 10.6931 8.06724Z" fill="white"/>
</svg>
