<svg width="18" height="18" viewBox="0 0 18 18" fill="none" xmlns="http://www.w3.org/2000/svg">
<path fill-rule="evenodd" clip-rule="evenodd" d="M12.1777 11.3905L16.2422 16.2152L15.0348 17.2444L10.9718 12.4023C8.36226 14.0943 4.84309 13.6118 2.78788 11.1625C0.557238 8.52328 0.920155 4.57467 3.55939 2.34403C6.19863 0.11339 10.1488 0.458982 12.3779 3.11555C14.4331 5.56486 14.2971 9.11434 12.1777 11.3905ZM4.57271 3.53252C2.5929 5.20983 2.33371 8.17243 3.99369 10.1507C5.671 12.1305 8.63208 12.407 10.6119 10.7297C12.5917 9.05243 12.8682 6.09134 11.1909 4.11154C9.5136 2.13173 6.55252 1.85521 4.57271 3.53252Z" fill="black"/>
<path d="M16.2422 16.2152L16.3719 16.3674L16.5232 16.2385L16.3951 16.0864L16.2422 16.2152ZM12.1777 11.3905L12.0313 11.2542L11.9106 11.3838L12.0247 11.5193L12.1777 11.3905ZM15.0348 17.2444L14.8816 17.3729L15.0112 17.5273L15.1646 17.3966L15.0348 17.2444ZM10.9718 12.4023L11.125 12.2737L11.0114 12.1382L10.863 12.2344L10.9718 12.4023ZM2.78788 11.1625L2.94109 11.034L2.94063 11.0334L2.78788 11.1625ZM3.55939 2.34403L3.43029 2.19128L3.55939 2.34403ZM12.3779 3.11555L12.5311 2.98699L12.3779 3.11555ZM3.99369 10.1507L3.84048 10.2793L3.84109 10.28L3.99369 10.1507ZM4.57271 3.53252L4.70199 3.68512L4.57271 3.53252ZM11.1909 4.11154L11.3435 3.98225L11.1909 4.11154ZM16.3951 16.0864L12.3306 11.2616L12.0247 11.5193L16.0892 16.3441L16.3951 16.0864ZM15.1646 17.3966L16.3719 16.3674L16.1124 16.063L14.9051 17.0922L15.1646 17.3966ZM10.8186 12.5308L14.8816 17.3729L15.1881 17.1158L11.125 12.2737L10.8186 12.5308ZM2.63467 11.2911C4.75539 13.8184 8.38712 14.3165 11.0806 12.5701L10.863 12.2344C8.3374 13.8721 4.9308 13.4052 2.94108 11.034L2.63467 11.2911ZM3.43029 2.19128C0.70811 4.49202 0.331993 8.56661 2.63512 11.2916L2.94063 11.0334C0.782483 8.47995 1.1322 4.65731 3.6885 2.49678L3.43029 2.19128ZM12.5311 2.98699C10.2312 0.246112 6.15462 -0.111274 3.43029 2.19128L3.6885 2.49678C6.24265 0.338055 10.0663 0.671852 12.2247 3.2441L12.5311 2.98699ZM12.324 11.5267C14.5117 9.17742 14.6518 5.51436 12.5311 2.98699L12.2247 3.2441C14.2144 5.61536 14.0826 9.05127 12.0313 11.2542L12.324 11.5267ZM4.1469 10.0222C2.55825 8.12888 2.8055 5.29184 4.70199 3.68512L4.44343 3.37992C2.3803 5.12781 2.10916 8.21597 3.84048 10.2793L4.1469 10.0222ZM10.4826 10.5771C8.58895 12.1815 5.7538 11.9189 4.14629 10.0214L3.84109 10.28C5.5882 12.3422 8.67521 12.6326 10.7412 10.8823L10.4826 10.5771ZM11.0383 4.24082C12.6426 6.13447 12.38 8.96963 10.4826 10.5771L10.7412 10.8823C12.8034 9.13522 13.0938 6.04822 11.3435 3.98225L11.0383 4.24082ZM4.70199 3.68512C6.59564 2.0808 9.4308 2.3434 11.0383 4.24082L11.3435 3.98225C9.5964 1.92006 6.50939 1.62962 4.44343 3.37992L4.70199 3.68512Z" fill="black"/>
</svg>
