<svg width="13" height="11" viewBox="0 0 13 11" fill="none" xmlns="http://www.w3.org/2000/svg">
<path d="M13 1.30223C12.5166 1.52308 12.0014 1.66946 11.4644 1.74054C12.0169 1.397 12.4386 0.857154 12.6368 0.206462C12.1217 0.526308 11.5529 0.752231 10.9468 0.878308C10.4577 0.335923 9.76056 0 9.00006 0C7.52456 0 6.33669 1.24723 6.33669 2.77623C6.33669 2.99623 6.35456 3.20777 6.39844 3.40915C4.18275 3.29662 2.22219 2.19069 0.905125 0.506C0.675188 0.921462 0.540313 1.397 0.540313 1.90892C0.540313 2.87015 1.01562 3.72223 1.72413 4.21554C1.29594 4.20708 0.875875 4.07762 0.52 3.87369C0.52 3.88215 0.52 3.89315 0.52 3.90415C0.52 5.25292 1.44381 6.37323 2.65525 6.63131C2.43831 6.69308 2.20187 6.72269 1.9565 6.72269C1.78588 6.72269 1.61363 6.71254 1.45194 6.67531C1.79725 7.77446 2.77712 8.58254 3.94225 8.60877C3.0355 9.34746 1.88419 9.79254 0.637812 9.79254C0.41925 9.79254 0.209625 9.78238 0 9.75446C1.18056 10.5473 2.57969 11 4.0885 11C8.99275 11 11.674 6.76923 11.674 3.102C11.674 2.97931 11.6699 2.86085 11.6643 2.74323C12.1932 2.35231 12.6376 1.86408 13 1.30223Z" fill="white"/>
</svg>
